<svg width="35" height="35" viewBox="0 0 35 35" fill="none" xmlns="http://www.w3.org/2000/svg">
<path d="M26.25 11.6667H24.7917V8.75C24.7917 4.725 21.525 1.45833 17.5 1.45833C13.475 1.45833 10.2084 4.725 10.2084 8.75V11.6667H8.75004C7.14587 11.6667 5.83337 12.9792 5.83337 14.5833V29.1667C5.83337 30.7708 7.14587 32.0833 8.75004 32.0833H26.25C27.8542 32.0833 29.1667 30.7708 29.1667 29.1667V14.5833C29.1667 12.9792 27.8542 11.6667 26.25 11.6667ZM13.125 8.75C13.125 6.32917 15.0792 4.375 17.5 4.375C19.9209 4.375 21.875 6.32917 21.875 8.75V11.6667H13.125V8.75ZM26.25 29.1667H8.75004V14.5833H26.25V29.1667ZM17.5 24.7917C19.1042 24.7917 20.4167 23.4792 20.4167 21.875C20.4167 20.2708 19.1042 18.9583 17.5 18.9583C15.8959 18.9583 14.5834 20.2708 14.5834 21.875C14.5834 23.4792 15.8959 24.7917 17.5 24.7917Z" fill="#7CD0FF"/>
</svg>
