<svg width="35" height="35" viewBox="0 0 35 35" fill="none" xmlns="http://www.w3.org/2000/svg">
<path d="M17.5 2.91666C9.44996 2.91666 2.91663 9.45 2.91663 17.5C2.91663 25.55 9.44996 32.0833 17.5 32.0833C25.55 32.0833 32.0833 25.55 32.0833 17.5C32.0833 9.45 25.55 2.91666 17.5 2.91666ZM10.3104 26.6583C10.9375 25.3458 14.7583 24.0625 17.5 24.0625C20.2416 24.0625 24.077 25.3458 24.6895 26.6583C22.7062 28.2333 20.2125 29.1667 17.5 29.1667C14.7875 29.1667 12.2937 28.2333 10.3104 26.6583ZM26.775 24.5437C24.6895 22.0062 19.6291 21.1458 17.5 21.1458C15.3708 21.1458 10.3104 22.0062 8.22496 24.5437C6.73746 22.5896 5.83329 20.1542 5.83329 17.5C5.83329 11.0687 11.0687 5.83333 17.5 5.83333C23.9312 5.83333 29.1666 11.0687 29.1666 17.5C29.1666 20.1542 28.2625 22.5896 26.775 24.5437ZM17.5 8.75C14.6708 8.75 12.3958 11.025 12.3958 13.8542C12.3958 16.6833 14.6708 18.9583 17.5 18.9583C20.3291 18.9583 22.6041 16.6833 22.6041 13.8542C22.6041 11.025 20.3291 8.75 17.5 8.75ZM17.5 16.0417C16.2895 16.0417 15.3125 15.0646 15.3125 13.8542C15.3125 12.6437 16.2895 11.6667 17.5 11.6667C18.7104 11.6667 19.6875 12.6437 19.6875 13.8542C19.6875 15.0646 18.7104 16.0417 17.5 16.0417Z" fill="#7CD0FF"/>
</svg>
